<svg width="106" height="106" viewBox="0 0 106 106" fill="none" xmlns="http://www.w3.org/2000/svg">
<rect width="106" height="106" rx="24" fill="#3461FF"/>
<path d="M72.2841 47.25L47.25 72.2823C46.983 72.5493 46.6661 72.7611 46.3172 72.9057C45.9683 73.0502 45.5944 73.1246 45.2168 73.1246C44.8392 73.1246 44.4653 73.0502 44.1165 72.9057C43.7676 72.7611 43.4507 72.5493 43.1837 72.2823L33.7159 62.8163C33.4489 62.5493 33.2371 62.2324 33.0925 61.8835C32.948 61.5347 32.8736 61.1608 32.8736 60.7832C32.8736 60.4056 32.948 60.0316 33.0925 59.6828C33.2371 59.3339 33.4489 59.017 33.7159 58.75L38.9574 53.5085C39.0242 53.4417 39.1034 53.3887 39.1907 53.3525C39.278 53.3163 39.3715 53.2977 39.4659 53.2977C39.5604 53.2977 39.6539 53.3163 39.7412 53.3525C39.8284 53.3887 39.9077 53.4417 39.9745 53.5085L46.233 59.767C46.3727 59.9067 46.5398 60.0161 46.7237 60.0883C46.9076 60.1605 47.1044 60.194 47.3019 60.1868C47.4993 60.1795 47.6932 60.1316 47.8713 60.0461C48.0494 59.9606 48.208 59.8393 48.3371 59.6898C48.5732 59.405 48.6932 59.0417 48.6732 58.6723C48.6532 58.3029 48.4947 57.9547 48.2293 57.697L42.0067 51.4744C41.8723 51.3397 41.7968 51.1572 41.7968 50.9668C41.7968 50.7765 41.8723 50.594 42.0067 50.4592L44.702 47.7639C44.7688 47.6971 44.8481 47.6441 44.9353 47.6079C45.0226 47.5717 45.1161 47.5531 45.2105 47.5531C45.305 47.5531 45.3985 47.5717 45.4858 47.6079C45.573 47.6441 45.6523 47.6971 45.7191 47.7639L51.9776 54.0224C52.1173 54.1621 52.2844 54.2714 52.4683 54.3437C52.6522 54.4159 52.849 54.4494 53.0465 54.4422C53.2439 54.4349 53.4378 54.387 53.6159 54.3015C53.794 54.216 53.9526 54.0947 54.0817 53.9451C54.3178 53.6604 54.4378 53.297 54.4178 52.9277C54.3979 52.5583 54.2393 52.2101 53.9739 51.9524L47.7585 45.7244C47.6241 45.5897 47.5486 45.4072 47.5486 45.2168C47.5486 45.0265 47.6241 44.844 47.7585 44.7092L50.4538 42.0139C50.5886 41.8795 50.7711 41.804 50.9614 41.804C51.1518 41.804 51.3343 41.8795 51.4691 42.0139L57.7276 48.2724C57.8674 48.4124 58.0345 48.522 58.2186 48.5944C58.4027 48.6668 58.5997 48.7004 58.7974 48.6931C58.9951 48.6859 59.1891 48.6379 59.3674 48.5522C59.5457 48.4665 59.7044 48.345 59.8335 48.1951C60.0694 47.9102 60.1891 47.5467 60.1688 47.1773C60.1484 46.808 59.9896 46.4598 59.7239 46.2024L53.5085 39.9744C53.3741 39.8397 53.2986 39.6572 53.2986 39.4668C53.2986 39.2765 53.3741 39.094 53.5085 38.9592L58.75 33.7177C59.017 33.4507 59.3339 33.2389 59.6828 33.0943C60.0317 32.9498 60.4056 32.8754 60.7832 32.8754C61.1608 32.8754 61.5347 32.9498 61.8835 33.0943C62.2324 33.2389 62.5494 33.4507 62.8163 33.7177L72.2841 43.1837C72.5511 43.4506 72.7629 43.7676 72.9075 44.1165C73.052 44.4653 73.1264 44.8392 73.1264 45.2168C73.1264 45.5944 73.052 45.9683 72.9075 46.3172C72.7629 46.666 72.5511 46.983 72.2841 47.25Z" fill="white"/>
</svg>
