<svg width="106" height="106" viewBox="0 0 106 106" fill="none" xmlns="http://www.w3.org/2000/svg">
<rect width="106" height="106" rx="24" fill="#3461FF"/>
<path d="M64.5 34.3125C64.5005 34.0278 64.4165 33.7494 64.2586 33.5125C64.1006 33.2757 63.8759 33.091 63.613 32.982C63.35 32.873 63.0605 32.8445 62.7814 32.9002C62.5022 32.9559 62.2458 33.0932 62.0448 33.2948L56.2948 39.0448C56.1613 39.1785 56.0556 39.3372 55.9836 39.5119C55.9116 39.6865 55.8747 39.8736 55.875 40.0625V48.0924L53.7446 50.2199C53.3185 50.1068 52.872 50.093 52.4397 50.1797C52.0073 50.2663 51.6007 50.451 51.251 50.7196C50.9013 50.9882 50.6179 51.3335 50.4227 51.7288C50.2275 52.1242 50.1257 52.5591 50.125 53C50.1252 53.4092 50.2127 53.8136 50.3817 54.1862C50.5507 54.5588 50.7973 54.8911 51.105 55.1607C51.4127 55.4304 51.7744 55.6313 52.1659 55.75C52.5575 55.8687 52.9699 55.9025 53.3755 55.8491C53.7812 55.7956 54.1707 55.6562 54.5182 55.4402C54.8656 55.2241 55.163 54.9364 55.3903 54.5962C55.6177 54.256 55.7698 53.8712 55.8365 53.4676C55.9032 53.0639 55.883 52.6506 55.7773 52.2554L57.9076 50.125H65.9375C66.1264 50.1253 66.3135 50.0884 66.4881 50.0164C66.6628 49.9444 66.8215 49.8387 66.9553 49.7053L72.7052 43.9553C72.9068 43.7542 73.0441 43.4978 73.0998 43.2187C73.1555 42.9395 73.127 42.65 73.018 42.3871C72.909 42.1241 72.7243 41.8994 72.4875 41.7415C72.2506 41.5835 71.9722 41.4995 71.6875 41.5H64.5V34.3125ZM70.089 50.6368C70.5837 54.2166 69.9416 57.8614 68.2533 61.0567C66.5651 64.252 63.9159 66.8364 60.6798 68.445C57.4437 70.0536 53.784 70.6053 50.2175 70.022C46.651 69.4388 43.3578 67.7502 40.8026 65.1946C38.2475 62.6389 36.5595 59.3453 35.977 55.7787C35.3944 52.2121 35.9468 48.5526 37.556 45.3168C39.1653 42.081 41.7502 39.4323 44.9458 37.7446C48.1414 36.057 51.7864 35.4156 55.3661 35.911L54.265 37.0121C53.8641 37.4125 53.546 37.888 53.329 38.4114C53.1119 38.9348 53.0001 39.4959 53 40.0625C50.4412 40.0625 47.9399 40.8213 45.8123 42.2429C43.6847 43.6645 42.0265 45.685 41.0473 48.049C40.0681 50.4131 39.8119 53.0144 40.3111 55.524C40.8103 58.0336 42.0425 60.3389 43.8518 62.1482C45.6611 63.9575 47.9664 65.1897 50.476 65.6889C52.9856 66.1881 55.5869 65.9319 57.951 64.9527C60.315 63.9735 62.3355 62.3153 63.7571 60.1877C65.1787 58.0601 65.9375 55.5588 65.9375 53C67.0809 52.999 68.177 52.544 68.985 51.735L70.089 50.6368ZM53 42.9375C51.0098 42.9375 49.0643 43.5277 47.4096 44.6333C45.7548 45.739 44.4651 47.3106 43.7035 49.1493C42.9419 50.9879 42.7426 53.0112 43.1308 54.9631C43.5191 56.915 44.4775 58.708 45.8847 60.1153C47.292 61.5225 49.085 62.4809 51.0369 62.8692C52.9888 63.2574 55.0121 63.0582 56.8508 62.2965C58.6894 61.5349 60.261 60.2452 61.3667 58.5904C62.4723 56.9357 63.0625 54.9902 63.0625 53H59.0979L58.7385 53.3594C58.6694 54.4639 58.283 55.525 57.6258 56.4153C56.9685 57.3056 56.0683 57.9874 55.0331 58.3787C53.998 58.7701 52.8719 58.8544 51.79 58.6216C50.7081 58.3888 49.7164 57.8487 48.9339 57.0661C48.1513 56.2836 47.6113 55.2919 47.3784 54.21C47.1456 53.1281 47.2299 52.002 47.6213 50.9669C48.0126 49.9317 48.6944 49.0315 49.5847 48.3743C50.475 47.717 51.5361 47.3306 52.6406 47.2615L53 46.9021V42.9375Z" fill="white"/>
</svg>
